<?xml version="1.0" standalone="no"?>
<!DOCTYPE svg PUBLIC "-//W3C//DTD SVG 20010904//EN"
 "http://www.w3.org/TR/2001/REC-SVG-20010904/DTD/svg10.dtd">
<svg version="1.0" xmlns="http://www.w3.org/2000/svg"
 width="809.000000pt" height="809.000000pt" viewBox="0 0 809.000000 809.000000"
 preserveAspectRatio="xMidYMid meet">
<metadata>
Created by potrace 1.11, written by Peter Selinger 2001-2013
</metadata>
<g transform="translate(0.000000,809.000000) scale(0.100000,-0.100000)"
fill="#000000" stroke="none">
<path d="M2520 6858 c10 -24 22 -65 27 -93 4 -27 8 -466 7 -975 -1 -918 -1
-925 -23 -987 -11 -34 -21 -64 -21 -66 0 -2 329 -3 730 -3 l730 0 0 144 0 145
-28 -39 c-65 -90 -177 -162 -318 -206 -63 -19 -98 -22 -419 -25 l-350 -5 0
1076 0 1076 -177 0 -177 0 19 -42z"/>
<path d="M3620 5593 c0 -3 263 -428 315 -508 17 -27 62 -99 100 -160 37 -60
82 -132 100 -160 17 -27 64 -102 103 -166 l72 -116 175 0 c97 0 174 3 173 7
-2 3 -34 56 -71 117 -38 62 -69 115 -69 118 -1 7 64 101 350 513 128 185 215
288 275 327 15 9 27 20 27 24 0 3 -65 6 -145 6 -80 0 -145 -3 -145 -6 0 -4 7
-12 16 -20 24 -20 54 -85 54 -117 0 -54 -22 -96 -146 -277 -237 -348 -299
-434 -306 -427 -3 4 -122 194 -263 422 -142 228 -260 417 -262 420 -4 4 -353
8 -353 3z"/>
<path d="M1826 4383 c-3 -3 -6 -86 -6 -183 l0 -176 100 0 c116 0 136 20 24 23
-38 1 -76 2 -84 2 -13 1 -15 26 -15 167 0 155 -3 183 -19 167z"/>
<path d="M2145 4380 c-3 -5 19 -43 50 -83 30 -41 55 -79 55 -84 0 -6 -19 -37
-43 -69 -49 -68 -77 -111 -77 -119 0 -20 27 7 80 80 l62 86 59 -86 c56 -79 79
-101 79 -74 0 6 -13 28 -28 48 -16 20 -43 58 -61 84 l-33 48 49 70 c26 38 54
78 61 88 10 15 10 18 -3 18 -8 0 -38 -33 -66 -74 -29 -40 -55 -73 -58 -73 -3
0 -30 34 -59 75 -30 41 -56 75 -57 75 -2 0 -7 -4 -10 -10z"/>
<path d="M2828 4370 c-137 -74 -131 -270 10 -332 52 -23 127 -20 169 7 32 21
20 39 -15 21 -68 -35 -141 -24 -192 29 -35 36 -48 74 -45 128 8 107 135 174
234 123 37 -20 51 -3 17 19 -41 27 -134 29 -178 5z"/>
<path d="M3243 4375 c-90 -39 -136 -150 -99 -239 49 -117 204 -153 300 -68 28
25 56 91 56 135 1 130 -138 224 -257 172z m117 -15 c67 -18 123 -103 115 -171
-14 -113 -132 -178 -231 -126 -150 78 -101 289 71 306 6 0 26 -4 45 -9z"/>
<path d="M3630 4378 c-1 -32 -1 -268 -1 -308 l1 -45 94 0 c142 0 139 22 -4 27
l-65 3 -2 155 c-2 191 -1 180 -13 180 -5 0 -10 -6 -10 -12z"/>
<path d="M3950 4207 l0 -184 98 1 c61 1 95 5 92 11 -5 9 -27 12 -126 14 l-40
1 1 153 c1 159 -2 187 -16 187 -5 0 -9 -83 -9 -183z"/>
<path d="M4274 4381 c-2 -2 -4 -84 -4 -181 l0 -178 100 1 c68 1 101 5 104 14
4 9 -17 11 -80 10 -47 -1 -88 2 -92 7 -8 13 -10 123 -3 133 3 4 34 8 69 8 35
0 62 4 62 10 0 10 -16 12 -95 14 l-40 1 -1 70 0 70 88 0 c64 0 88 3 88 13 0 9
-25 12 -96 12 -52 0 -97 -2 -100 -4z"/>
<path d="M4690 4377 c-55 -29 -69 -42 -90 -79 -72 -127 19 -278 167 -278 40 0
103 29 103 47 0 11 -7 10 -32 -4 -113 -59 -239 23 -235 152 5 115 131 185 238
130 23 -13 29 -13 29 -2 0 35 -132 60 -180 34z"/>
<path d="M5001 4382 c-29 -10 -5 -22 42 -22 l52 0 0 -157 c-1 -164 1 -187 16
-177 5 3 9 79 9 170 l0 164 55 0 c30 0 55 5 55 10 0 6 -3 11 -7 11 -20 4 -213
4 -222 1z"/>
<path d="M5350 4205 c0 -102 4 -185 9 -185 16 0 17 21 15 190 -2 192 -1 180
-14 180 -6 0 -10 -68 -10 -185z"/>
<path d="M5605 4373 c-74 -39 -108 -95 -108 -181 0 -54 41 -116 98 -150 52
-30 139 -26 190 9 90 62 106 197 32 278 -51 55 -151 76 -212 44z m153 -27 c52
-27 77 -73 77 -141 0 -48 -5 -67 -25 -94 -47 -64 -137 -84 -209 -47 -73 38
-102 147 -59 221 44 75 138 101 216 61z"/>
<path d="M5994 4210 c0 -138 3 -181 13 -184 10 -4 13 26 12 150 -1 85 0 157 2
159 2 1 53 -64 112 -146 60 -82 118 -154 128 -160 19 -10 19 -5 17 173 -2 118
-7 181 -13 178 -6 -3 -10 -65 -10 -157 0 -83 -3 -149 -6 -147 -4 2 -55 70
-115 151 -100 138 -120 162 -134 163 -3 0 -6 -81 -6 -180z"/>
<path d="M3937 3908 c-27 -36 -105 -149 -164 -238 -21 -30 -80 -98 -133 -151
-76 -76 -104 -98 -134 -103 -58 -11 -185 -56 -251 -88 -197 -99 -352 -252
-449 -445 -129 -258 -150 -682 -47 -973 128 -364 404 -594 812 -675 112 -23
390 -28 485 -10 111 22 114 23 185 50 76 29 205 104 259 150 81 70 219 229
208 241 -3 2 -25 -19 -48 -48 -109 -134 -225 -230 -357 -296 -51 -26 -134 -57
-140 -54 -2 1 -21 -5 -43 -13 -22 -8 -43 -14 -45 -14 -3 0 -33 -2 -68 -6 -290
-31 -513 36 -688 206 -199 194 -299 476 -303 859 -6 434 122 773 366 972 150
122 288 165 517 158 234 -6 484 -111 627 -262 65 -67 183 -256 176 -280 -1 -5
2 -8 6 -8 5 0 9 72 9 160 0 159 0 160 -21 154 -70 -23 -124 -9 -232 61 -139
91 -277 149 -404 170 -19 3 -42 8 -50 10 -8 2 -53 7 -100 10 -92 7 -99 11
-130 78 -33 71 -15 112 150 351 43 63 49 90 7 34z"/>
<path d="M4662 3918 c8 -13 79 -126 158 -253 78 -126 144 -232 146 -234 5 -5
343 -5 349 0 2 3 -67 118 -153 257 l-157 251 -179 1 -178 0 14 -22z"/>
</g>
</svg>
