<?xml version="1.0" standalone="no"?>
<!DOCTYPE svg PUBLIC "-//W3C//DTD SVG 20010904//EN"
 "http://www.w3.org/TR/2001/REC-SVG-20010904/DTD/svg10.dtd">
<svg version="1.0" xmlns="http://www.w3.org/2000/svg"
 width="800.000000pt" height="800.000000pt" viewBox="0 0 800.000000 800.000000"
 preserveAspectRatio="xMidYMid meet">
<metadata>
Created by potrace 1.11, written by Peter Selinger 2001-2013
</metadata>
<g transform="translate(0.000000,800.000000) scale(0.100000,-0.100000)"
fill="#000000" stroke="none">
<path d="M2603 6803 l22 -48 3 -972 c2 -953 2 -974 -18 -1032 -11 -33 -20 -63
-20 -66 0 -3 329 -5 730 -5 l730 0 0 140 0 140 -72 -74 c-54 -54 -92 -82 -148
-109 -137 -66 -166 -70 -552 -74 l-348 -5 0 1076 0 1076 -174 0 -175 0 22 -47z"/>
<path d="M3799 5383 c54 -87 216 -347 361 -578 144 -231 403 -646 574 -922
l311 -503 178 0 c140 0 177 3 170 13 -4 6 -75 121 -158 254 -82 133 -226 366
-320 519 -93 152 -175 282 -181 288 -6 6 -40 58 -76 116 -66 104 -66 104 -49
130 10 14 116 167 236 340 235 339 284 402 358 462 l49 38 -147 0 -147 0 30
-35 c34 -38 48 -87 38 -138 -9 -46 -45 -104 -258 -412 -163 -237 -184 -264
-196 -248 -7 10 -126 201 -265 425 l-252 408 -177 0 -177 0 98 -157z"/>
<path d="M4028 3873 c-8 -10 -59 -83 -114 -163 -122 -180 -268 -333 -327 -344
-59 -11 -186 -56 -252 -88 -194 -97 -349 -250 -445 -438 -115 -225 -150 -583
-85 -865 113 -487 503 -787 1056 -812 387 -18 668 107 891 395 66 85 38 69
-40 -23 -98 -116 -198 -196 -317 -255 -156 -78 -227 -94 -435 -94 -157 -1
-183 1 -250 22 -320 100 -523 365 -596 777 -24 136 -24 431 0 570 46 273 145
475 305 627 145 137 264 188 457 196 283 11 529 -71 707 -237 64 -59 107 -120
167 -233 l50 -93 0 168 c0 92 -1 167 -3 167 -1 0 -18 -5 -37 -10 -61 -18 -114
-2 -213 63 -176 116 -325 169 -530 189 l-119 12 -24 41 c-25 44 -31 104 -15
148 5 14 51 84 101 157 50 73 89 134 87 136 -2 2 -11 -4 -19 -13z"/>
</g>
</svg>
