<svg viewBox="0 0 445.89 569" xmlns="http://www.w3.org/2000/svg"><g fill="#231f20" transform="translate(-84 -111)"><path d="m367.09 407.23 31.64 51h35.59l-31.89-51zm-111.35 51h31.26c-5.57-5-8.36-10.21-8.36-15.48a18.19 18.19 0 0 1 2.79-9.29l18-26.24h-1.77l-17.79 25.93c-6.81 9.59-14.24 18.57-24.14 25.07m164.36-216.65h-31.27s8.36 5.26 8.36 14.86c-.62 7.12-4 11.14-6.81 15.79l-38.07 55.08-53.24-85.74h-35.28l69.3 111.12h35.25l-15.1-24.15 43-62.21c6.5-9.6 13.93-18.26 23.83-24.76"/><path d="m371.8 634.14c-20.62 28.62-46.16 44.32-84 44.32-44.32 0-84.63-33.85-84.63-110.48 0-72.63 40-110.48 80.32-110.48 36 0 60.94 13.85 74.78 30.47 9.23 11.39 15.39 26.78 15.39 26.78v-34.18a16.75 16.75 0 0 1 -8.31 2.15c-10.77 0-12.93-6.46-31.08-15.69-15.09-7.69-34.48-11.03-50.79-11.03-58.78 0-112.33 34.16-112.33 111.72 0 66.78 42.78 112.33 116.64 112.33 39.39 0 65.86-16.62 85.86-45.86h-1.85z"/><path d="m187.41 327.66h-35.26a38.67 38.67 0 0 0 5.26-19.5v-177.35a39.15 39.15 0 0 0 -5.26-19.81h35.28v215.11"/><path d="m187.43 326.11h53.24c45.5 0 58.19-27.54 58.19-27.54v29.09h-111.45"/><path d="m501.36 398.59h2.42v-31.78h.36l23.32 31.78h2.42v-36.11h-2.42v31.78h-.36l-23.32-31.78h-2.42v36.12zm-31-1.86a16.21 16.21 0 1 1 15.84-16.2 16.21 16.21 0 0 1 -15.84 16.2m0-34.78a18.58 18.58 0 1 0 18.32 18.57 18.63 18.63 0 0 0 -18.28-18.52m-31 .52h-2.4v36.12h2.42v-36.16zm-14.81 0h-23.59v2.32h10.63v33.8h2.37v-33.84h10.63v-2.32zm-34.78 32.25-1.65-1.7a15.69 15.69 0 0 1 -10.11 3.71 16.2 16.2 0 0 1 0-32.4 15.55 15.55 0 0 1 10.11 3.62l1.6-1.81a18.58 18.58 0 1 0 .1 28.48m-58.35 1.55v-14.6h14.09v-2.32h-14.1v-14.5h17.8v-2.32h-20.22v36.12h20.69v-2.32h-18.27zm-32.14 0v-33.8h-2.43v36.12h19.76v-2.32h-17.34zm-32.14 0v-33.8h-2.43v36.12h19.76v-2.32h-17.34zm-33.38.46a16.21 16.21 0 1 1 15.84-16.2 16.21 16.21 0 0 1 -15.84 16.2m0-34.78a18.58 18.58 0 1 0 18.32 18.57 18.63 18.63 0 0 0 -18.34-18.47m-28.63 32.72-1.65-1.7a15.69 15.69 0 0 1 -10.11 3.71 16.2 16.2 0 0 1 0-32.4 15.56 15.56 0 0 1 10.06 3.67l1.6-1.81a18.58 18.58 0 1 0 .1 28.48m-61.2 3.92-13.36-18.68 12.36-17.43h-2.89l-11 15.38-11-15.38h-2.94l12.49 17.44-13.36 18.68h2.94l11.91-16.6 11.85 16.59zm-57.53-2.32v-33.8h-2.47v36.12h19.76v-2.32h-17.34z"/></g></svg>