<svg xmlns="http://www.w3.org/2000/svg" viewBox="0 0 227.14 216.5"><defs><style>.cls-1,.cls-3{fill:none;}.cls-1,.cls-2{fill-rule:evenodd;}.cls-2,.cls-4{fill:#393b41;}</style></defs><title>Asset 1</title><g id="Layer_2" data-name="Layer 2"><g id="Objects"><path class="cls-1" d="M216.48,180.84a1.66,1.66,0,0,0-2,.17c.67-.08,1.42.24,2-.26,1.6,1.35,3.31.41,4.93.11a2,2,0,0,0,1.88-2,4.44,4.44,0,0,0-4.9-.21C217.45,179.12,217.38,180.33,216.48,180.84Z"/><path class="cls-1" d="M211.72,170.06c-1.25-.62-2.18-2.08-3.94-1.37-.28.11-.82-.36-1.21-.61q-4.53-3-9-6c-.43-.29-1.29-.6-1-1.12.55-1.15-.42-1.35-.93-1.6-3.75-1.84-7.27-4.11-11.14-5.72-3.68-1.53-7.32-3.19-10.89-5a42.19,42.19,0,0,0-6-2.83c-1.06-.34-2.13-.66-3.18-1-.75-.27-.84-.9-.75-1.61a1.09,1.09,0,0,1,1.05-1.09c2-.13,3.93-.87,5.95-1.14,1.4-.19,2.72.38,4.14,0,2.33-.69,4.74-1.11,7.11-1.67.49-.12,1.15-.05,1.26-.82-1.16-1.08-2.82.13-3.94-.82-.73-.62-1.39-.31-2.08-.14-2.25.55-4.48,1.22-6.75,1.69-3.08.64-6.16,1.46-9.36,1.08-.57-.07-1.43-.08-1.5.4-.24,1.52-1.45,1.14-2.31,1.36a8.78,8.78,0,0,0-3.16,1c-.84.6-1.8,1.44-1.19,2.5s1.28,2.52,2.51,3.24a9.28,9.28,0,0,1,4.12,5.39c.79,2.45,2.2,4.73,2.2,7.43a3,3,0,0,0,.71,1.49c.42.59.87,1.32,1.68,1.34s.29-1.45,1.41-1.54c.75.64,1.57,1.36,2.42,2a.5.5,0,0,0,.71-.08c.58-.63-.51-1.4.19-2,1,.29,1.23,1.47,2.2,1.81-4-5.78-6.47-12.51-11.15-17.86a2,2,0,0,1,2-.14,20.08,20.08,0,0,1,6.57,3c.52.37,1,1,1.68.86,2.1-.56,3.78.52,5.5,1.33a130.41,130.41,0,0,1,12.21,6.69,137.22,137.22,0,0,1,14.73,10,13.11,13.11,0,0,0,5.46,2.93l-10.48-8.16c.3,0,.5-.07.6,0,3.15,2.13,6.64,3.72,9.49,6.31.43.39,1.2,1.2,1.62.54C210.2,168.52,210.91,170.15,211.72,170.06Z"/><path class="cls-1" d="M227.14,186.82c-1.57-.75-2.82.21-3.87-.51.23-.85,1.44-.64,1.39-1.82a12.86,12.86,0,0,0-5.93,1.7C221.54,187.84,224.1,187.46,227.14,186.82Z"/><path class="cls-1" d="M213.42,173.12c0,.11,0,.21.09.24.94.53,1.91,2.18,2.87,1,.54-.67-1.17-1.48-2.34-2.49.28,1,1.11,1.17,1,1.86Z"/><path class="cls-1" d="M211.86,174.66l-2.12-1.56A2.92,2.92,0,0,0,211.86,174.66Z"/><path class="cls-1" d="M219.25,176.21a4.47,4.47,0,0,0-.57-.53c-.25-.17-.73-.56-.77-.06C217.86,176.3,218.69,176.08,219.25,176.21Z"/><path class="cls-1" d="M200.68,162.77c0,.14,0,.34.13.41s.27,0,.41,0c0-.14,0-.34-.12-.41S200.82,162.75,200.68,162.77Z"/><path class="cls-2" d="M211.72,170.06c-.81.09-1.52-1.54-2.48,0-.41.66-1.19-.15-1.62-.54-2.84-2.59-6.34-4.18-9.49-6.31-.1-.07-.29,0-.6,0L208,171.37a13.11,13.11,0,0,1-5.46-2.93,137.22,137.22,0,0,0-14.73-10,130.41,130.41,0,0,0-12.21-6.69c-1.72-.81-3.4-1.89-5.5-1.33-.69.18-1.16-.5-1.68-.86a20.08,20.08,0,0,0-6.57-3,2,2,0,0,0-2,.14c4.68,5.34,7.11,12.07,11.15,17.86-1-.33-1.2-1.52-2.2-1.81-.7.62.39,1.4-.19,2a.5.5,0,0,1-.71.08c-.85-.69-1.67-1.41-2.42-2-1.13.09-.49,1.56-1.41,1.54s-1.25-.75-1.68-1.34a3,3,0,0,1-.71-1.49c0-2.7-1.4-5-2.2-7.43a9.28,9.28,0,0,0-4.12-5.39c-1.23-.72-1.84-2.08-2.51-3.24s.35-1.9,1.19-2.5a8.78,8.78,0,0,1,3.16-1c.86-.22,2.07.16,2.31-1.36.07-.48.93-.47,1.5-.4,3.21.39,6.28-.43,9.36-1.08,2.27-.47,4.5-1.13,6.75-1.69.69-.17,1.35-.48,2.08.14,1.12,1,2.78-.26,3.94.82-.11.77-.77.71-1.26.82-2.37.56-4.78,1-7.11,1.67-1.41.42-2.74-.14-4.14,0-2,.27-3.92,1-5.95,1.14a1.09,1.09,0,0,0-1.05,1.09c-.09.7,0,1.34.75,1.61,1,.38,2.12.7,3.18,1a42.19,42.19,0,0,1,6,2.83c3.56,1.79,7.2,3.45,10.89,5,3.87,1.61,7.39,3.88,11.14,5.72.51.25,1.48.44.93,1.6-.24.51.61.82,1,1.12q4.5,3,9,6c.38.25.93.72,1.21.61C209.54,168,210.47,169.43,211.72,170.06Zm-45.78-10.61c.23,0,.43-.11.35-.32a3.54,3.54,0,0,0-2-2.2A6,6,0,0,0,165.94,159.44Zm-2.51,2.23a2.79,2.79,0,0,0-1.05-2.7A2.5,2.5,0,0,0,163.43,161.68Z"/><path class="cls-2" d="M216.48,180.84c.9-.51,1-1.72,1.89-2.22a4.44,4.44,0,0,1,4.9.21,2,2,0,0,1-1.88,2c-1.62.3-3.32,1.24-4.93-.11Zm2.34-.82a6,6,0,0,0,.76,0c.21,0,.32-.27.19-.35a1.2,1.2,0,0,0-.7-.08C219,179.59,218.93,179.82,218.82,180Z"/><path class="cls-2" d="M227.14,186.82c-3,.64-5.6,1-8.41-.62a12.86,12.86,0,0,1,5.93-1.7c.05,1.18-1.16,1-1.39,1.82C224.32,187,225.58,186.07,227.14,186.82Z"/><path class="cls-2" d="M213.42,173.12l1.65.59c.08-.69-.75-.88-1-1.86,1.17,1,2.88,1.82,2.34,2.49-1,1.2-1.93-.45-2.87-1C213.47,173.33,213.46,173.23,213.42,173.12Z"/><path class="cls-2" d="M211.86,174.66a2.92,2.92,0,0,1-2.12-1.56Z"/><path class="cls-2" d="M219.25,176.21c-.55-.13-1.39.1-1.34-.58,0-.5.52-.11.77.06A4.47,4.47,0,0,1,219.25,176.21Z"/><path class="cls-2" d="M200.67,162.77c.14,0,.34-.11.41,0s.09.27.12.41c-.14,0-.33.11-.41,0S200.71,162.91,200.67,162.77Z"/><path class="cls-2" d="M216.47,180.75c-.61.5-1.36.17-2,.26a1.66,1.66,0,0,1,2-.17Z"/><path class="cls-1" d="M165.94,159.44a6,6,0,0,1-1.64-2.51,3.54,3.54,0,0,1,2,2.2C166.37,159.33,166.17,159.46,165.94,159.44Z"/><path class="cls-1" d="M163.43,161.68a2.5,2.5,0,0,1-1.05-2.7A2.79,2.79,0,0,1,163.43,161.68Z"/><path class="cls-1" d="M218.82,180c.11-.2.16-.43.25-.44a1.2,1.2,0,0,1,.7.08c.14.08,0,.31-.19.35A6,6,0,0,1,218.82,180Z"/><path class="cls-1" d="M8.59,22.13a1.66,1.66,0,0,0,2,.4c-.67-.1-1.3-.62-2-.31-1.17-1.74-3.06-1.31-4.7-1.47a2,2,0,0,0-2.37,1.43,4.44,4.44,0,0,0,4.65,1.56C7.19,23.51,7.59,22.37,8.59,22.13Z"/><path class="cls-1" d="M10.18,33.81c1,.95,1.52,2.61,3.41,2.41.29,0,.69.57,1,.92q3.52,4.14,7,8.3c.34.4,1.07.94.7,1.36-.84,1,0,1.41.45,1.79,3.09,2.8,5.84,6,9.12,8.58C35,59.66,38,62.26,41,65a42.05,42.05,0,0,0,5,4.39c.93.62,1.86,1.23,2.77,1.88.65.47.56,1.1.28,1.75a1.09,1.09,0,0,1-1.31.75c-2-.43-4-.25-6-.55-1.4-.21-2.51-1.11-4-1.1-2.43,0-4.86-.25-7.3-.37-.5,0-1.12-.27-1.44.44.81,1.36,2.75.66,3.56,1.88.53.8,1.25.68,2,.71,2.32.09,4.64.07,7,.25,3.14.24,6.32.29,9.29,1.56.53.22,1.35.47,1.55,0,.65-1.39,1.71-.69,2.59-.67a8.81,8.81,0,0,0,3.32-.09c1-.35,2.13-.88,1.83-2.08s-.53-2.78-1.52-3.81A9.28,9.28,0,0,1,56,63.63c-.09-2.58-.8-5.15-.05-7.75a3,3,0,0,0-.28-1.63c-.24-.69-.47-1.51-1.24-1.75s-.68,1.32-1.79,1.09c-.54-.82-1.13-1.74-1.76-2.64a.5.5,0,0,0-.71-.12c-.73.44.1,1.49-.75,1.9-.88-.56-.78-1.76-1.62-2.35C50.11,57,50.58,64.18,53.6,70.62a2,2,0,0,1-2-.43,20.08,20.08,0,0,1-5.49-4.66c-.4-.5-.67-1.28-1.38-1.3-2.17,0-3.49-1.55-4.92-2.8a130.22,130.22,0,0,1-9.88-9.8A137.36,137.36,0,0,1,18.55,37.9a13.09,13.09,0,0,0-4.44-4.33l7.81,10.74c-.29-.08-.5-.07-.58-.16C18.91,41.24,16,38.74,14,35.46c-.31-.5-.82-1.49-1.4-1C11.22,35.71,11,33.95,10.18,33.81Z"/><path class="cls-1" d="M0,13.43C1.3,14.58,2.77,14,3.58,15c-.46.76-1.56.21-1.83,1.36a12.84,12.84,0,0,0,6.16,0C5.66,14,3.1,13.66,0,13.43Z"/><path class="cls-1" d="M9.39,30.39c0-.12,0-.22,0-.25-.76-.77-1.23-2.62-2.49-1.74-.71.5.71,1.75,1.56,3,0-1-.74-1.44-.47-2.08Z"/><path class="cls-1" d="M11.32,29.34l1.6,2.09A2.92,2.92,0,0,0,11.32,29.34Z"/><path class="cls-1" d="M4.65,25.82a4.64,4.64,0,0,0,.4.66c.19.23.55.74.73.27C6,26.11,5.15,26.09,4.65,25.82Z"/><path class="cls-1" d="M18.78,43.87c0-.15.06-.33,0-.43s-.26-.05-.4-.07c0,.15-.07.34,0,.43S18.64,43.85,18.78,43.87Z"/><path class="cls-2" d="M10.18,33.81c.8.14,1,1.9,2.39.68.58-.52,1.1.47,1.4,1,2,3.27,4.94,5.77,7.37,8.69.08.09.28.08.58.16L14.11,33.57a13.09,13.09,0,0,1,4.44,4.33A137.36,137.36,0,0,0,29.92,51.62a130.22,130.22,0,0,0,9.88,9.8c1.43,1.25,2.75,2.76,4.92,2.8.71,0,1,.8,1.38,1.3a20.08,20.08,0,0,0,5.49,4.66,2,2,0,0,0,2,.43c-3-6.43-3.49-13.57-5.78-20.25.84.59.74,1.79,1.62,2.35.85-.4,0-1.45.75-1.9a.5.5,0,0,1,.71.12c.63.9,1.22,1.82,1.76,2.64,1.11.23.9-1.37,1.79-1.09s1,1.06,1.24,1.75A3,3,0,0,1,56,55.87c-.75,2.6,0,5.18.05,7.75a9.28,9.28,0,0,0,2.47,6.31c1,1,1.19,2.51,1.52,3.81s-.86,1.73-1.83,2.08a8.81,8.81,0,0,1-3.32.09c-.88,0-1.95-.72-2.59.67-.2.44-1,.19-1.55,0-3-1.26-6.15-1.32-9.29-1.56-2.31-.17-4.64-.16-7-.25-.71,0-1.43.09-2-.71-.81-1.22-2.74-.52-3.56-1.88.32-.71.94-.46,1.44-.44,2.43.12,4.87.38,7.3.37,1.47,0,2.59.9,4,1.1,2,.3,4,.12,6,.55A1.09,1.09,0,0,0,49,73c.28-.65.37-1.28-.28-1.75-.9-.65-1.84-1.26-2.77-1.88A42.05,42.05,0,0,1,41,65c-2.93-2.71-6-5.31-9.08-7.8-3.28-2.62-6-5.78-9.12-8.58-.42-.38-1.3-.84-.45-1.79.37-.42-.36-1-.7-1.36q-3.48-4.17-7-8.3c-.3-.35-.69-1-1-.92C11.7,36.42,11.21,34.75,10.18,33.81ZM51.23,56.68c-.22-.09-.44,0-.42.21a3.53,3.53,0,0,0,1.3,2.66A6,6,0,0,0,51.23,56.68Zm3-1.45a2.79,2.79,0,0,0,.27,2.89A2.5,2.5,0,0,0,54.26,55.22Z"/><path class="cls-2" d="M8.59,22.13c-1,.24-1.4,1.38-2.43,1.61a4.44,4.44,0,0,1-4.65-1.56,2,2,0,0,1,2.37-1.43c1.64.16,3.54-.27,4.7,1.47Zm-2.48.14a6,6,0,0,0-.73-.19c-.21,0-.38.17-.27.28a1.18,1.18,0,0,0,.65.26C5.84,22.64,6,22.43,6.11,22.27Z"/><path class="cls-2" d="M0,13.43c3.1.22,5.66.56,7.91,2.93a12.84,12.84,0,0,1-6.16,0C2,15.21,3.13,15.75,3.58,15,2.77,14,1.3,14.58,0,13.43Z"/><path class="cls-2" d="M9.39,30.39,8,29.37c-.27.64.48,1,.47,2.08-.85-1.29-2.26-2.55-1.56-3,1.26-.88,1.73,1,2.49,1.74C9.41,30.18,9.38,30.27,9.39,30.39Z"/><path class="cls-2" d="M11.32,29.34a2.92,2.92,0,0,1,1.6,2.09Z"/><path class="cls-2" d="M4.65,25.82c.5.28,1.36.29,1.13.93-.18.47-.53,0-.73-.27A4.64,4.64,0,0,1,4.65,25.82Z"/><path class="cls-2" d="M18.78,43.87c-.14,0-.35,0-.41-.07s0-.29,0-.43c.14,0,.35,0,.4.07S18.78,43.72,18.78,43.87Z"/><path class="cls-2" d="M8.58,22.22c.73-.31,1.35.21,2,.31a1.66,1.66,0,0,1-2-.4Z"/><path class="cls-1" d="M51.23,56.68a6,6,0,0,1,.88,2.87,3.53,3.53,0,0,1-1.3-2.66C50.79,56.67,51,56.59,51.23,56.68Z"/><path class="cls-1" d="M54.26,55.22a2.5,2.5,0,0,1,.27,2.89A2.79,2.79,0,0,1,54.26,55.22Z"/><path class="cls-1" d="M6.11,22.27c-.16.16-.27.37-.36.35a1.18,1.18,0,0,1-.65-.26c-.11-.11.06-.31.27-.28A6,6,0,0,1,6.11,22.27Z"/><path class="cls-3" d="M73.62,153.48c-2.18.39-4.36.82-6.52,1.32a60.75,60.75,0,0,1-7.15,1.91,2.79,2.79,0,0,1-.67,0c-4.48,1.77-8.84,3.84-13.14,6a2.41,2.41,0,0,0-.81.7c-.12.17.05.33.28.31h0c.09,1.71,1,2.58,2.69,2.36.08.63-.28.83-.52,1.09s-.78.63-.35,1.15.83.12,1.17-.16a57.49,57.49,0,0,1,6.8-4.34,59,59,0,0,1,7.6-4.13c-.71,2-1.1,3.74-2.18,5.16-1.69,2.22-3.37,4.44-5,6.68-1.32,1.78-2.89,3.41-3.64,5.56l.08-.09-.08.09h0a13.41,13.41,0,0,0-3.25,5v.26a28.39,28.39,0,0,0-4.15,5.85c-1.95,3.78-3.89,7.56-5.79,11.37a114.55,114.55,0,0,0-6.24,15.12,2,2,0,0,0-.1,1.71c.93-.64.91-1.54,1.1-2.33a1.91,1.91,0,0,1,2.4-1.66,13.25,13.25,0,0,0,1.7.06c2.37-4.57,5-9,7.51-13.49.7-1.22,1.37-2.47,2-3.75a12.61,12.61,0,0,1,.82-1.61c.62-1.23,1.23-2.46,1.85-3.71-.25-1.36.56-2.37,1.06-3.51a61.14,61.14,0,0,1,6.27-10.42l.41-.76c2.45-2.76,5.39-5.07,7.34-8.27a23.7,23.7,0,0,1,2-2.71c.51-.62,1.15-1.67,1.94-1.25a2.89,2.89,0,0,1,1.63,2.69,14.57,14.57,0,0,1-.29,1.64,12.3,12.3,0,0,0-.38,2.18c0,4.49.22,9,.14,13.48l.94-2.53c.64-.1.73,1,1.57.41-1.19-1.73-.14-3.7-.56-5.61-.46-2.12-1.45-4.33.34-6.4.3-.34.13-1.08.19-1.64.13-1.29.36-2.59.39-3.89A12.62,12.62,0,0,1,74,158.36q.07-2.16.14-4.31A3.08,3.08,0,0,0,73.62,153.48Z"/><path class="cls-4" d="M36.1,212.52a13.25,13.25,0,0,0,1.7.06c.34-.65.69-1.3,1-1.94a5.61,5.61,0,0,1-2.17.7c-.45.08-.9.11-1.36.17,0-3.33,5.78-15.73,13.59-29a28.16,28.16,0,0,0-4.15,5.84c-1.95,3.78-3.89,7.56-5.79,11.37a114.55,114.55,0,0,0-6.24,15.12,2,2,0,0,0-.1,1.71c.93-.64.91-1.54,1.1-2.33A1.91,1.91,0,0,1,36.1,212.52Z"/><path class="cls-4" d="M73.62,153.48c-2.18.39-4.36.82-6.52,1.32a60.75,60.75,0,0,1-7.15,1.91,2.79,2.79,0,0,1-.67,0c-4.48,1.77-8.84,3.84-13.14,6a2.41,2.41,0,0,0-.81.7c-.13.17.05.33.29.31h0l.37.08c.63,0,1.1-.4,1.64-.67,1.95-1,3.7-2.41,6.07-2.34-2.48,1.24-4.49,3.69-7.71,3a1.29,1.29,0,0,1-.36-.08h0c.09,1.71,1,2.58,2.69,2.36.08.63-.28.83-.52,1.09s-.78.63-.35,1.15.83.12,1.17-.16a57.49,57.49,0,0,1,6.8-4.34,59,59,0,0,1,7.6-4.13c-.71,2-1.1,3.74-2.18,5.16-1.69,2.22-3.37,4.44-5,6.68-1.32,1.78-2.89,3.41-3.64,5.56.34,0,1.09-.5.83.41a12.73,12.73,0,0,1-1.25,3.09c-3,5.11-5,10.75-8,15.9-1.48,2.59-2.65,5.3-4,8a4.37,4.37,0,0,0-.51,2.94,6.78,6.78,0,0,1,.19,2c.38-.7.77-1.4,1.16-2.1l.1-.35a49.94,49.94,0,0,1,3.51-8.73,10.9,10.9,0,0,1,1.52-2.36c-.07.84-.05,1.68-.08,2.52q.86-1.54,1.68-3.12a12.61,12.61,0,0,1,.82-1.61c.62-1.23,1.23-2.46,1.85-3.71-.25-1.36.56-2.37,1.06-3.51a61.14,61.14,0,0,1,6.27-10.42c-1.26-.17-.88-.9-.53-1.6a46.78,46.78,0,0,1,5.51-8.68,14.76,14.76,0,0,0,2.16-3.53,10.39,10.39,0,0,1,3.67-4.45c1.44,2.18,1.52,2.52,0,4.14-2.69,2.84-5,5.95-7.54,8.94a13.9,13.9,0,0,0-2.84,4.42c2.45-2.76,5.39-5.07,7.34-8.27a23.7,23.7,0,0,1,2-2.71c.51-.62,1.15-1.67,1.94-1.25a2.89,2.89,0,0,1,1.63,2.69,14.57,14.57,0,0,1-.29,1.64,12.3,12.3,0,0,0-.38,2.18c0,4.49.22,9,.14,13.48l.94-2.53c.64-.1.73,1,1.57.41-1.19-1.73-.14-3.7-.56-5.61-.46-2.12-1.45-4.33.34-6.4.3-.34.13-1.08.19-1.64.13-1.29.36-2.59.39-3.89A12.59,12.59,0,0,1,74,158.36q.07-2.16.14-4.31A3.08,3.08,0,0,0,73.62,153.48Zm-3.09,4.88a.43.43,0,0,1-.62.33.54.54,0,0,1-.18-.62c.07-.25.21-.51.54-.35A.52.52,0,0,1,70.52,158.36Z"/><path class="cls-3" d="M38.83,210.63l.61-1.15a6.78,6.78,0,0,0-.19-2,4.37,4.37,0,0,1,.51-2.94c1.31-2.66,2.48-5.38,4-8,3-5.15,4.95-10.79,8-15.9A12.73,12.73,0,0,0,53,177.57c.24-.88-.43-.43-.79-.42a15.57,15.57,0,0,1-3.29,5s0,.26,0,.27c-7.81,13.31-13.62,25.71-13.59,29,.46-.06.91-.09,1.36-.17A5.61,5.61,0,0,0,38.83,210.63Z"/><path class="cls-1" d="M45.3,199.09l.35-.62c0-.84,0-1.68.08-2.52a10.9,10.9,0,0,0-1.52,2.36A49.94,49.94,0,0,0,40.69,207l-.1.35C42.14,204.61,43.72,201.85,45.3,199.09Z"/><path class="cls-1" d="M57.33,176.09c-1.26-.17-.88-.9-.53-1.6a46.78,46.78,0,0,1,5.51-8.68,14.76,14.76,0,0,0,2.16-3.53,10.39,10.39,0,0,1,3.67-4.45c1.44,2.18,1.52,2.52,0,4.14-2.69,2.84-5,5.95-7.54,8.94a13.9,13.9,0,0,0-2.84,4.42Z"/><path class="cls-2" d="M52.22,177.07a15.65,15.65,0,0,1-3.34,5.13A13.32,13.32,0,0,1,52.22,177.07Z"/><path class="cls-1" d="M45.61,163.79c.82.3,1.36-.27,2-.59,1.95-1,3.7-2.41,6.07-2.34-2.57,1.29-4.64,3.88-8.08,2.93Z"/><path class="cls-1" d="M69.9,158.69a.54.54,0,0,1-.18-.62c.07-.25.21-.51.54-.35a.52.52,0,0,1,.26.64A.43.43,0,0,1,69.9,158.69Z"/><path class="cls-1" d="M167.28,36.23a13.32,13.32,0,0,0,4.09-4.55l0-.26a28.37,28.37,0,0,0,5-5.13c2.51-3.43,5-6.87,7.49-10.33a114.65,114.65,0,0,0,8.52-14,2,2,0,0,0,.37-1.68c-1,.48-1.14,1.38-1.45,2.13a1.91,1.91,0,0,1-2.63,1.27c-1.15-.32-2.38-.36-3.54-.64-1.75-.43-3.27-.35-4.23,1.46a2.69,2.69,0,0,1-1.89.64c-.82.5-1.52,1-1.13,2.19a3.82,3.82,0,0,1,.12,1.92c-1,4.47-1.68,9.06-5.37,12.36-.53.47-1.35,1-1.23,1.74.26,1.62-.84,2.55-1.57,3.69a61.2,61.2,0,0,1-7.81,9.32l-.52.69c-2.85,2.35-6.11,4.17-8.54,7a23.62,23.62,0,0,1-2.36,2.38c-.6.53-1.4,1.47-2.11.93a2.89,2.89,0,0,1-1.19-2.91,14,14,0,0,1,.54-1.58,12.35,12.35,0,0,0,.71-2.1c.68-4.44,1.18-8.9,2-13.34l-1.32,2.35c-.65,0-.57-1.1-1.49-.65.91,1.89-.43,3.68-.32,5.62.12,2.17.76,4.5-1.33,6.27-.35.29-.3,1-.44,1.59-.33,1.26-.76,2.5-1,3.78a11.19,11.19,0,0,1-5.76,8.37c-.39.4-1.18.35-1.42,1.22a1.5,1.5,0,0,0,1.38-1.31,3.61,3.61,0,0,0,1.91-.16c.36-.08.76-.12.92.34.84,2.4,2.74,2.24,4.73,2,8.45-.83,16.58-3.06,24.62-5.67a2.44,2.44,0,0,0,.91-.57c.15-.15,0-.34-.24-.35h0c.18-1.7-.56-2.7-2.29-2.75,0-.64.41-.77.68-1s.87-.51.53-1.08-.8-.25-1.18,0a57.62,57.62,0,0,1-7.39,3.23,59.34,59.34,0,0,1-8.15,2.9c1-1.91,1.66-3.52,3-4.76,2-1.93,4-3.86,6-5.81,1.58-1.56,3.39-2.91,4.46-4.93Z"/><path class="cls-1" d="M185.47,0c.89.77,2,.57,2.23,1.43.18.59.51.7,1,.42a.57.57,0,0,0,.28-.4.8.8,0,0,0-.69-.73C187.5.5,186.7.31,185.47,0Z"/><path class="cls-2" d="M162.09,36.39a61.2,61.2,0,0,0,7.81-9.32c.73-1.14,1.82-2.07,1.57-3.69-.12-.78.71-1.27,1.23-1.74,3.69-3.3,4.4-7.89,5.37-12.36a3.82,3.82,0,0,0-.12-1.92c-.39-1.18.31-1.69,1.13-2.18-.84,2-.76,2.57.81,4.15a.67.67,0,0,1,.12.94,25.26,25.26,0,0,1-1.62,2.57c-1.3,1.73-1.26,3.8-1.74,5.75a10.9,10.9,0,0,0,1.87-2.09,50,50,0,0,0,4.82-8.08c1.52-3.25.93-4.12-2.38-3.88,1-1.81,2.48-1.89,4.23-1.46,1.16.28,2.39.32,3.54.64a1.91,1.91,0,0,0,2.63-1.27c.31-.74.43-1.64,1.45-2.13A2,2,0,0,1,192.44,2a114.65,114.65,0,0,1-8.52,14c-2.47,3.46-5,6.9-7.49,10.33a28.09,28.09,0,0,1-5,5.12c9.78-11.93,17.46-23.27,17.94-26.57-.46,0-.92-.05-1.37,0-2.79.06-3.3.56-3.16,3.41a4.38,4.38,0,0,1-1,2.83c-1.71,2.42-3.29,4.93-5.16,7.25-3.72,4.63-6.57,9.89-10.38,14.46a12.71,12.71,0,0,0-1.72,2.85c-.39.87.43.46.76.54-1.08,2-2.88,3.37-4.46,4.93-2,2-4,3.89-6,5.81-1.3,1.24-1.94,2.84-3,4.76a59.34,59.34,0,0,0,8.15-2.9,57.62,57.62,0,0,0,7.39-3.23c.38-.22.83-.57,1.18,0s-.18.8-.53,1.08-.66.36-.68,1c1.73.05,2.47,1,2.29,2.75-3.25-1.48-5.7.76-8.44,1.64,2.33.43,4.29-.73,6.36-1.37.69-.21,1.31-.7,2.07-.27.23,0,.39.21.24.35a2.44,2.44,0,0,1-.91.57c-8,2.61-16.17,4.84-24.62,5.67-2,.19-3.89.35-4.73-2-.16-.47-.57-.43-.92-.34a3.61,3.61,0,0,1-1.91.16l0,.08a11.14,11.14,0,0,0,5.76-8.35c.23-1.28.65-2.52,1-3.78.14-.54.09-1.3.44-1.59,2.09-1.77,1.46-4.1,1.33-6.27-.11-1.94,1.23-3.73.32-5.62.92-.45.84.65,1.49.65l1.32-2.35c-.78,4.44-1.28,8.9-2,13.34a12.35,12.35,0,0,1-.71,2.1,14,14,0,0,0-.54,1.58,2.89,2.89,0,0,0,1.19,2.91c.71.54,1.51-.4,2.11-.93A23.62,23.62,0,0,0,153,44.11c2.43-2.86,5.7-4.69,8.54-7A13.89,13.89,0,0,1,158.08,41c-2.94,2.56-5.74,5.27-8.84,7.66-1.77,1.36-1.76,1.71-.67,4.09a10.4,10.4,0,0,0,4.32-3.83,14.74,14.74,0,0,1,2.68-3.15,46.61,46.61,0,0,0,6.79-7.72C162.82,37.41,163.31,36.76,162.09,36.39ZM147,51.63a.43.43,0,0,0-.66.23.52.52,0,0,0,.16.68c.3.21.48,0,.59-.26A.54.54,0,0,0,147,51.63Z"/><path class="cls-1" d="M167.38,36.15c-.33-.09-1.15.33-.76-.54a12.71,12.71,0,0,1,1.72-2.85c3.81-4.57,6.66-9.84,10.38-14.46,1.87-2.32,3.45-4.83,5.16-7.25a4.38,4.38,0,0,0,1-2.83c-.13-2.86.37-3.35,3.16-3.41.45,0,.91,0,1.37,0-.48,3.3-8.16,14.63-17.94,26.57l-.05.27a15.66,15.66,0,0,0-4.09,4.55Z"/><path class="cls-1" d="M181,4.54c3.3-.24,3.9.63,2.38,3.88a50,50,0,0,1-4.82,8.08,10.9,10.9,0,0,1-1.87,2.09c.48-2,.44-4,1.74-5.75A25.26,25.26,0,0,0,180,10.26a.67.67,0,0,0-.12-.94c-1.57-1.58-1.66-2.18-.81-4.15A2.7,2.7,0,0,0,181,4.54Z"/><path class="cls-1" d="M162.09,36.39c1.22.37.73,1,.28,1.67a46.61,46.61,0,0,1-6.79,7.72,14.74,14.74,0,0,0-2.68,3.15,10.4,10.4,0,0,1-4.32,3.83c-1.09-2.38-1.1-2.73.67-4.09,3.1-2.38,5.9-5.09,8.84-7.66a13.89,13.89,0,0,0,3.49-3.93Z"/><path class="cls-2" d="M167.28,36.23a15.66,15.66,0,0,1,4.09-4.55A13.32,13.32,0,0,1,167.28,36.23Z"/><path class="cls-2" d="M185.47,0c1.23.31,2,.5,2.82.72a.8.8,0,0,1,.69.73.57.57,0,0,1-.28.4c-.49.28-.82.17-1-.42C187.43.57,186.36.77,185.47,0Z"/><path class="cls-2" d="M138.89,54.73A1.5,1.5,0,0,1,137.52,56c.24-.87,1-.82,1.41-1.23Z"/><path class="cls-1" d="M171.75,50.37c-.76-.43-1.38.06-2.07.27-2.07.64-4,1.8-6.36,1.37,2.74-.87,5.19-3.11,8.44-1.64Z"/><path class="cls-1" d="M147,51.63a.54.54,0,0,1,.08.65c-.11.24-.29.47-.59.26a.52.52,0,0,1-.16-.68A.43.43,0,0,1,147,51.63Z"/><path class="cls-3" d="M139.14,69.26a.74.74,0,0,0-.13.18c-.77,1.48-1.67.55-2.27.14A26.2,26.2,0,0,0,129.22,66a8.2,8.2,0,0,1-3.56-2c2.31-.21,3.87,1.12,5.71,1.12a30,30,0,0,0-7.27-2.54l-.18,0-.14,0q-.77-.12-1.54-.21l-.79-.07c-.52,0-1-.07-1.55-.12a54,54,0,0,0-15.37,1.47l-1.09.91c-1.14-.41-1.91.56-2.88.76a13.9,13.9,0,0,0-4.24,1.1,41.24,41.24,0,0,0-8.86,5.15A71,71,0,0,0,75.6,81.74c-1.9,4-3.73,8-5.33,12.07a106,106,0,0,0-3.8,11.69,72.07,72.07,0,0,0,.34,10.21c.23,2.32.35,4.66.56,7.36a5,5,0,0,1-1.61-3.3c-.37-1.8-.83-3.58-1.16-5.38-.08.53-.17,1.06-.24,1.59a40.58,40.58,0,0,0,1.58,6.12c.45,1.3.95,2.58,1.45,3.86a105.69,105.69,0,0,0,8.33,10.74c21.4,13.09,51.38,16.37,66.72-.54-1.33,1.06-2.79,2-4.06,3.11a1.64,1.64,0,0,1-2,.41c.33-.86,1.1-1.25,1.7-1.82a30.42,30.42,0,0,0,6.26-7.34l-.1.09c1.21-1.11,2.4-2.23,3.62-3.32a7.68,7.68,0,0,0,.71-.75,45.32,45.32,0,0,0,3-10.73C154,100.93,151.39,79.91,139.14,69.26Zm11.36,43.08c-2.78,9.55-8.19,18.65-17.05,23.66a42.42,42.42,0,0,1-25,5.45c-6.09,1.1-12.8,2.34-18.66-.08-3.91-1.62-6.5-4.78-8.39-8.38-8.37-7.35-12.74-18.62-8.61-30.81a2.54,2.54,0,0,1,.39-.71C75.68,86.6,88.8,73.32,104.26,70.65a43.28,43.28,0,0,1,28.92,5.18,1.5,1.5,0,0,1,1.63-.28c6.4,2.62,12.26,10.35,14,17.94C151.46,99.4,152.43,105.75,150.51,112.34Z"/><path class="cls-4" d="M73.15,101.48q.19-1.12.46-2.23a41,41,0,0,1,4.06-12.39c.54-1.12,1.81-1,2.36-2.08.84-1.64,2.08-3.06,3-4.67,2.33-4,6-6.49,9.93-8.67,5.22-2.89,11-3.22,16.7-3.57A30,30,0,0,1,121.51,69c.33.11.65.28,1,.43-.33-1.4-1.59-1.39-2.61-1.55a41.53,41.53,0,0,0-9.72-.6,8.28,8.28,0,0,1-2.46-.11c0-.74.53-.81.93-.88,6.14-1,12.19-1,18.08,1.44,1.49.62,3.15.6,4.69,1.4,4.37,2.28,7.23,6,10,9.8.56.76.94,2.47,2,1.76s-.11-1.95-.76-2.73c-1-1.2-2.16-2.28-3.42-3.6,2.58.8,4.69,3.14,10.12,11.23-2.11-6.39-5.43-12.17-10.24-16.35a.74.74,0,0,0-.13.18c-.77,1.48-1.67.55-2.27.14A26.2,26.2,0,0,0,129.22,66a8.2,8.2,0,0,1-3.56-2c2.31-.21,3.87,1.12,5.71,1.12a30,30,0,0,0-7.27-2.54l-.18,0-.14,0q-.77-.12-1.54-.21l-.79-.07c-.52,0-1-.07-1.55-.12a54,54,0,0,0-15.37,1.47l-1.09.91a22.14,22.14,0,0,1,10.3-1c-7.23,1.2-14,3.87-21,5.93,2.16-2.24,5.25-2.73,7.81-4.21a13.81,13.81,0,0,0-4.22,1.09,41.24,41.24,0,0,0-8.86,5.15A71,71,0,0,0,75.6,81.74c-1.73,3.61-3.39,7.24-4.87,11C69.36,98,67.89,103,67.64,108.27A37,37,0,0,1,68,100.1c-.58,1.79-1.09,3.6-1.56,5.41a72.07,72.07,0,0,0,.34,10.21c.23,2.32.35,4.66.56,7.36a5,5,0,0,1-1.61-3.3c-.37-1.8-.83-3.58-1.16-5.38-.08.53-.17,1.06-.24,1.59a40.58,40.58,0,0,0,1.58,6.12c.45,1.3.95,2.58,1.45,3.86q1.53,2.31,3.23,4.52a24,24,0,0,1-2.45-8.05c0-.34-.1-.85.34-.89.26,0,.56.36.84.56a25.37,25.37,0,0,0-.51-3.54c-.89-3.1.28-6.11.31-9.19,1.06,1.29,1,2.79,1,4.33s-.42,3,.85,4.21c-.26-.86-.45-1.71.47-2.34l0,0a27.3,27.3,0,0,1-.06-10.75c.15-.8,0-1.7,1.14-2.4,0,.1,0,.2,0,.31.06-.18.1-.36.16-.55A2.46,2.46,0,0,1,73.15,101.48Zm-2.88,6c-1.09-4.13.4-7.77,2.27-11.33C71.86,99.92,71,103.68,70.27,107.46Zm1.37-12.71c-.14-3.49,4.45-12.21,8-15.05C76.5,84.43,74.31,89.64,71.64,94.75Z"/><path class="cls-4" d="M152.2,109.79c-.57,4.41-2.45,8.3-5.48,12.37,1.95-.93,2.08-2.71,3.56-3.49-.72,3.73-2.61,6.71-4.57,9.63a11.44,11.44,0,0,0-1.49,2.29l.09-.08-.1.09v0c-1.79,1.52-4,2.76-5.19,4.67a18.21,18.21,0,0,1-4.7,4.86,23.64,23.64,0,0,1-8.69,4.1,46.9,46.9,0,0,0-5,1.49l0,0c.17.22.85.23.45.66a1.12,1.12,0,0,1-1.7.14l1.25-.8h0l.05,0,0,0c-4.13.07-8.23,1.17-12.4.69,0-.24,0-.36,0-.41.34-.46.83-.2,1.27-.33-3.07-.19-6.19.19-9.2-.59-2.83-.74-6-.69-8.47-3a16.75,16.75,0,0,1-2.15-.72,15,15,0,0,1-6.2-4.93l2,3.28a1.23,1.23,0,0,1-1.54-.18c-1.24-1.72-3-2.41-4.93-3a1.62,1.62,0,0,1-.87-.64c-.91-1.63-2.61-2.29-4-3.33A3.31,3.31,0,0,1,75.54,135a8.56,8.56,0,0,1-1.61-.45q.89,1.06,1.8,2.1A76.28,76.28,0,0,0,83.84,141c.23.09.46.17.68.28l1.08.49c20,8.54,43.75,8.81,56.84-5.62-1.33,1.06-2.79,2-4.06,3.11a1.64,1.64,0,0,1-2,.41c.33-.86,1.1-1.25,1.7-1.82a30.44,30.44,0,0,0,6.26-7.34h0c1.17-1.08,2.34-2.16,3.51-3.23a7.68,7.68,0,0,0,.71-.75,45.32,45.32,0,0,0,3-10.73,64.48,64.48,0,0,0,.7-6.7C152.25,109.34,152.23,109.57,152.2,109.79Z"/><path class="cls-1" d="M103.44,64.49a22.14,22.14,0,0,1,10.3-1c-7.23,1.2-14,3.87-21,5.93,2.16-2.24,5.25-2.73,7.81-4.21C101.54,65.05,102.31,64.07,103.44,64.49Z"/><path class="cls-3" d="M72.59,102.72c0-.1,0-.21,0-.31-1.15.7-1,1.61-1.14,2.4a27.3,27.3,0,0,0,.06,10.75h0l0,0A28,28,0,0,1,72.59,102.72Z"/><path class="cls-3" d="M150.15,88.14c-.21-.07-.35-.38-.45-.64s-.13-.58.07-.66c-.13-.41-.25-.83-.39-1.24-5.43-8.07-7.53-10.41-10.12-11.21,1.26,1.32,2.42,2.4,3.42,3.6.65.78,1.95,1.94.76,2.73s-1.46-1-2-1.76c-2.8-3.82-5.67-7.52-10-9.8-1.54-.8-3.2-.79-4.69-1.4-5.89-2.43-11.94-2.42-18.08-1.44-.4.06-.92.14-.93.88a8.28,8.28,0,0,0,2.46.11,41.53,41.53,0,0,1,9.72.6c1,.16,2.26.15,2.6,1.53l.06,0h0a3.3,3.3,0,0,1,3.29,1c-1.39-.18-2.23-1-3.29-1l-.07,0,0,0c-.33-.14-.64-.3-1-.41a30,30,0,0,0-11.85-1.15c-5.73.36-11.48.68-16.7,3.57C89,73.63,85.36,76.08,83,80.12c-.92,1.6-2.17,3-3,4.67-.55,1.07-1.82,1-2.36,2.08a41,41,0,0,0-4.06,12.39c3.39-14,16-26.06,30.66-28.59a43.28,43.28,0,0,1,28.92,5.18,1.5,1.5,0,0,1,1.63-.28c6,2.45,11.49,9.37,13.63,16.47a.4.4,0,0,0,.41.15c1.15-.26,1.21.58,1.32,1.26.29,1.82.74,3.64.9,5.45a8.24,8.24,0,0,1,0,1.52,25.22,25.22,0,0,1-.54,11.92c-2.78,9.55-8.19,18.65-17.05,23.66a42.42,42.42,0,0,1-25,5.45c-5.35,1-11.19,2-16.51.64,2.51,2.29,5.65,2.24,8.47,3,3,.78,6.13.41,9.2.59-.43.13-.92-.13-1.27.33,0,.06,0,.17,0,.41,4.17.47,8.27-.62,12.4-.69l-.09,0a46.42,46.42,0,0,1,5-1.51,23.64,23.64,0,0,0,8.69-4.1,18.21,18.21,0,0,0,4.7-4.86c1.16-1.9,3.4-3.15,5.19-4.67a11.44,11.44,0,0,1,1.49-2.29c2-2.93,3.85-5.9,4.57-9.63-1.48.78-1.61,2.56-3.56,3.49,3-4.08,4.91-8,5.48-12.37,0-.22,0-.45.08-.67A66.9,66.9,0,0,0,150.15,88.14ZM129.24,72.86a3.27,3.27,0,0,1-.68-.46,1.19,1.19,0,0,1-.65-.94A4.3,4.3,0,0,1,130,72.71C129.84,73.31,129.48,73,129.24,72.86Z"/><path class="cls-3" d="M124.1,133.31a1,1,0,0,1,.47-.27c.22,0,.31.13.15.33a1.49,1.49,0,0,1-.46.25C124,133.6,123.93,133.48,124.1,133.31Z"/><path class="cls-3" d="M81.64,133.48c-.2-.25-.4-.51-.58-.78a29.17,29.17,0,0,1-9.56-17.12h0c-.9.64-.7,1.49-.44,2.35l.07.07,0,.08c-.18,2.73,1.58,5,1.57,7.71-.68-2.53-3.07-4.7-1.57-7.71,0,0,0,0,0,0l0-.1c-1.28-1.2-.87-2.78-.85-4.24s0-3-1-4.33c0,3.08-1.2,6.09-.31,9.19a25.37,25.37,0,0,1,.51,3.54l-.07-.1a10.06,10.06,0,0,1,1.36,4.11c1,.77,1.21,2,1.7,3a9.84,9.84,0,0,0,1.84,3.46c1.38,1,3.08,1.69,4,3.32a1.62,1.62,0,0,0,.87.64c1.9.6,3.7,1.29,4.93,3a1.23,1.23,0,0,0,1.54.18l-2-3.32A23.39,23.39,0,0,1,81.64,133.48Z"/><path class="cls-3" d="M74.19,132.57a9.84,9.84,0,0,1-1.84-3.46,4.23,4.23,0,0,1-1.76-3,6.88,6.88,0,0,1-1.3-4c-.26-.21-.54-.53-.78-.51-.45,0-.38.56-.34.89a24,24,0,0,0,2.45,8.05q1.6,2.09,3.3,4.11a8.56,8.56,0,0,0,1.61.45A3.28,3.28,0,0,0,74.19,132.57Z"/><path class="cls-1" d="M79.68,79.7c-3.18,4.74-5.38,9.94-8,15.05C71.49,91.26,76.09,82.54,79.68,79.7Z"/><path class="cls-1" d="M70.28,93.81Q69.06,96.94,68,100.1a37,37,0,0,0-.41,8.17C67.89,103,69.36,98,70.73,92.69,70.58,93.07,70.42,93.44,70.28,93.81Z"/><path class="cls-1" d="M72.54,96.12c-.68,3.79-1.52,7.55-2.27,11.33C69.18,103.33,70.67,99.68,72.54,96.12Z"/><path class="cls-1" d="M120.63,145.75c.16.23.86.23.46.67a1.12,1.12,0,0,1-1.7.14l1.33-.85Z"/><path class="cls-4" d="M151.07,98.9c-.16-1.81-.61-3.63-.9-5.45-.11-.69-.17-1.53-1.32-1.26a.4.4,0,0,1-.41-.15c.15.5.29,1,.41,1.49s.32.71.46,1.06l0-.05c0,.16.08.32.13.47a30.69,30.69,0,0,1,1.58,5.42A8.24,8.24,0,0,0,151.07,98.9Z"/><path class="cls-2" d="M71.07,118c-.2,2.75,1.58,5.06,1.57,7.76-.69-2.56-3.12-4.73-1.54-7.79Z"/><path class="cls-2" d="M70.65,126.17A6.86,6.86,0,0,1,69.29,122,9.85,9.85,0,0,1,70.65,126.17Z"/><path class="cls-2" d="M127.91,71.46A4.3,4.3,0,0,1,130,72.71c-.13.59-.49.25-.73.15a3.27,3.27,0,0,1-.68-.46A1.19,1.19,0,0,1,127.91,71.46Z"/><path class="cls-2" d="M122.49,69.47a3.3,3.3,0,0,1,3.37.93c-1.4-.18-2.25-1-3.32-1Z"/><path class="cls-2" d="M72.35,129.1a4.26,4.26,0,0,1-1.76-3.05C71.62,126.81,71.85,128,72.35,129.1Z"/><path class="cls-2" d="M124.26,133.62c-.25,0-.33-.15-.16-.31a1,1,0,0,1,.47-.27c.22,0,.31.13.15.33A1.49,1.49,0,0,1,124.26,133.62Z"/></g></g></svg>