<svg xmlns="http://www.w3.org/2000/svg" viewBox="0 0 57.01 55.69"><title>Asset 1</title><g id="Layer_2" data-name="Layer 2"><g id="Layer_1-2" data-name="Layer 1"><path d="M46,14.89c-10.11-2.77-21.77-2.2-31,3C6.11,23,.63,34.8,5,44.6c4.21,9.55,17,12.27,26.31,10.65,9.47-1.65,17.23-9.08,20.44-17.93,2.84-7.83,2-17.23-2.8-24.11C43.7,5.8,34.71,4,26.32,6.14,15.53,8.85,3.65,17.55.55,28.64c-3.58,12.8,11.08,20,21.64,19.94A37.71,37.71,0,0,0,53.4,30.89c4-6.69,5.36-15,.47-21.62C45.17-2.48,24.38-2.83,14.21,6.91a21,21,0,0,0-6,12.2c-.14,1,1.34,1.38,1.48.41C12.42,1.4,35.42-3,48.87,6.51c7.49,5.3,8,14.18,4.12,21.92C46.78,40.88,31.87,48.24,18.2,46.86c-7.25-.73-15.6-5.57-16.55-13.41-.8-6.65,4.37-12.8,8.92-17,8.07-7.36,21.6-13.35,32-7.22,8,4.75,10.36,15.35,8.71,23.94a26.24,26.24,0,0,1-21,20.67c-7,1.21-15-.58-20.36-5.29C3.75,43.26,4.07,34.47,7.49,27.72,14.18,14.57,33,12.91,45.64,16.37A.77.77,0,0,0,46,14.89Z"/></g></g></svg>