<svg xmlns="http://www.w3.org/2000/svg" viewBox="0 0 295.87 34.82"><defs><style>.cls-1{fill:#161616;}</style></defs><title>Asset 2</title><g id="Layer_2" data-name="Layer 2"><g id="Layer_1-2" data-name="Layer 1"><path class="cls-1" d="M285.82,15.37c-2.76.55-5.53,1.1-8.27,1.74-3.1.73-6.22,1.42-9.28,2.3-3.63,1-7.25,2.15-10.86,3.26-2.61.8-5.16,1.78-7.76,2.59-1.35.42-2.71.73-4.09,1-1.06.22-2.1.5-3.17.69a8.81,8.81,0,0,1-1,0c.12-.45.27-.88.4-1.33l.38-1.37c.4-1.44.84-2.87,1.19-4.32.24-1,.44-2,.6-2.93a12,12,0,0,0,.14-1.57,8.42,8.42,0,0,0-.17-1.46A6.22,6.22,0,0,0,243,11.6a3.67,3.67,0,0,0-1.05-1.07,5.14,5.14,0,0,0-1.52-.65A8.36,8.36,0,0,0,239,9.71a8.61,8.61,0,0,0-1.31,0,14.09,14.09,0,0,0-3.27.76l-2.45.74c-1.41.42-2.83.83-4.22,1.29-3,1-6,1.93-9,3l-11,3.85c-3.39,1.19-6.78,2.37-10.21,3.44-2.11.66-4.25,1.22-6.38,1.79A57.56,57.56,0,0,1,184.75,26a32.19,32.19,0,0,1-6.76.18,11.86,11.86,0,0,1-2-.52,11,11,0,0,1-1.19-.71,9.91,9.91,0,0,1-.86-.83c-.09-.13-.17-.27-.25-.41a13.6,13.6,0,0,1-.44-1.94c-.08-1.18-.07-2.37-.09-3.55s0-2.19-.06-3.28a44.3,44.3,0,0,0-.28-5,15.22,15.22,0,0,0-1.9-6.18,9.71,9.71,0,0,0-1-1.21,7.94,7.94,0,0,0-1.21-1A7.93,7.93,0,0,0,166.09.2,8.26,8.26,0,0,0,164.59,0h-.32c-.36,0-.72,0-1.08.07a22.26,22.26,0,0,0-3.58.62c-1.08.28-2.12.7-3.17,1.08s-2.07.74-3.1,1.12c-2.23.84-4.43,1.79-6.61,2.76s-4,1.89-6,2.89c-1.11.56-2.23,1.11-3.32,1.71l-5,2.74-7.58,4.19-8.52,4.74a121.22,121.22,0,0,1-10.88,5.47q-2.24.92-4.52,1.72a26.81,26.81,0,0,1-4.6,1.22,18.81,18.81,0,0,1-3.68.11,8.69,8.69,0,0,1-1.16-.29,6.83,6.83,0,0,1-.69-.42,9.4,9.4,0,0,1-.78-.8q-.1-.15-.18-.3a13.63,13.63,0,0,1-.5-2.2c-.11-1.09-.17-2.19-.24-3.28l-.23-3.23a47.8,47.8,0,0,0-.62-5.16,21,21,0,0,0-.82-2.88A16.4,16.4,0,0,0,86,8.83a10.6,10.6,0,0,0-1.84-2.2,13.7,13.7,0,0,0-2.42-1.78A12.39,12.39,0,0,0,79,3.68a16.66,16.66,0,0,0-3.61-.55c-4.69-.36-9.36.63-13.93,1.61s-9.26,2.32-13.82,3.7c-2.06.62-4.15,1.22-6.18,1.94Q36.63,12.11,31.8,14q-8,3-15.81,6.36l-4.22,1.79c-1.27.55-2.53,1.15-3.78,1.74-2.68,1.27-5.33,2.6-8,3.91a0,0,0,0,0,0,0c4.86-1.39,9.67-2.92,14.54-4.28q5.88-1.64,11.72-3.41,6.45-2,12.86-4.1l3.69-1.26C45,14,47.21,13.3,49.42,12.6c3.28-1,6.57-2,9.9-2.87,1.66-.43,3.33-.81,5-1.19S68,7.75,69.8,7.47a30.14,30.14,0,0,1,6.87-.12A12.29,12.29,0,0,1,79,8a13.7,13.7,0,0,1,1.85,1.09,12.27,12.27,0,0,1,1.4,1.35,11.34,11.34,0,0,1,1,1.83,22.31,22.31,0,0,1,1.25,4.51c.28,2.33.42,4.68.57,7q0,.7.08,1.4a26.93,26.93,0,0,0,.33,3.07c.07.46.16.91.28,1.37a6.73,6.73,0,0,0,.56,1.31,7.77,7.77,0,0,0,.89,1.2,6.66,6.66,0,0,0,.7.71l.82.64a8,8,0,0,0,2.61,1.08,13.25,13.25,0,0,0,2.94.26A23.15,23.15,0,0,0,101,33.7c1.06-.32,2.1-.71,3.14-1.1s2.09-.8,3.12-1.23c2.25-1,4.43-2,6.6-3.14.95-.49,1.9-1,2.83-1.48l2-1.13,6.07-3.4,7-3.92,7.39-4.11c1.2-.67,2.43-1.29,3.66-1.91,2.69-1.36,5.41-2.66,8.18-3.85q2.72-1.13,5.5-2.11a34.56,34.56,0,0,1,5.58-1.64,13.8,13.8,0,0,1,2.55-.09l.36.1a7.77,7.77,0,0,1,.74.43,9.16,9.16,0,0,1,.9.89,8.29,8.29,0,0,1,.45.76,19.33,19.33,0,0,1,.83,3.52c.16,1.54.17,3.09.18,4.63q0,1.64,0,3.28c0,1.22,0,2.45,0,3.67,0,.55.14,1.1.22,1.64s.16.91.27,1.36a9.81,9.81,0,0,0,.57,1.44,3.84,3.84,0,0,0,.47.72,10.93,10.93,0,0,0,.69.86,7.88,7.88,0,0,0,1,.94,15,15,0,0,0,1.3.94,7.86,7.86,0,0,0,1.21.6,13.17,13.17,0,0,0,1.54.55,16.14,16.14,0,0,0,3.17.47,26.73,26.73,0,0,0,3.61,0,41.81,41.81,0,0,0,6.54-.93c2.33-.51,4.62-1.21,6.92-1.85,4.46-1.25,8.79-2.93,13.15-4.48,1.33-.48,2.66-1,4-1.48,3-1.11,6-2.25,9-3.31,2.49-.88,5-1.76,7.47-2.62,1.17-.41,2.37-.75,3.55-1.12l1.92-.61a25.57,25.57,0,0,1,3.05-.83,9.55,9.55,0,0,1,1.19,0l.2,0c.08.26.14.51.19.77a7.28,7.28,0,0,1,0,1.08,46.13,46.13,0,0,1-1.58,5.87c-.32,1-.62,2-1,3-.12.29-.24.58-.35.87a4.86,4.86,0,0,0-.23,1.49l.09.67a3.36,3.36,0,0,0,.17.78,6.7,6.7,0,0,0,.61,1.38l.23.3a2.26,2.26,0,0,0,.67.74,4.24,4.24,0,0,0,1.48.83,7.89,7.89,0,0,0,3.09.28,24.34,24.34,0,0,0,3-.5l2.81-.6A51.68,51.68,0,0,0,255.2,29q6.41-2.38,12.74-4.92c5.85-2.36,11.75-4.56,17.65-6.79l4.56-1.73c1.9-.71,3.78-1.45,5.71-2.09,0,0,0,0,0,0C292.5,14,289.16,14.7,285.82,15.37Zm-46.76-1.28.2.08h0Zm2.37,13h0l.16.07Z"/></g></g></svg>