<svg xmlns="http://www.w3.org/2000/svg" viewBox="0 0 87.27 53.99"><title>Asset 2</title><g id="Layer_2" data-name="Layer 2"><g id="Layer_1-2" data-name="Layer 1"><path d="M31.1,7.49C21.12,9.92,10.2,15.71,4,24.09c-5.89,8-5.5,18.09,2.71,24.2,7.93,5.9,19.59,6,29,5.51A95.64,95.64,0,0,0,64.89,48C73,44.87,82.2,40.1,86,31.82,88.58,26.09,87,19.88,83.38,15,74,2.38,54.95-2,40.14.83A39.51,39.51,0,0,0,15.43,17.1c-.56.79.74,1.53,1.29.75C28.28,1.54,49.38-2.12,67.29,5.11c6.86,2.77,13.71,7.48,17,14.27s.39,13.8-5,18.64c-7.81,7.08-18.82,10.53-29,12.47-10.6,2-22,3-32.63.78-4.79-1-9.51-2.95-12.89-6.58C.82,40.31.44,34.11,2.84,28.82,7.53,18.52,20.55,11.77,31,9.05l.49-.12c.93-.23.54-1.67-.4-1.44Z"/></g></g></svg>