<?xml version="1.0" encoding="UTF-8"?>
<svg width="203px" height="225px" viewBox="0 0 203 225" version="1.1" xmlns="http://www.w3.org/2000/svg" xmlns:xlink="http://www.w3.org/1999/xlink">
    <!-- Generator: Sketch 43.1 (39012) - http://www.bohemiancoding.com/sketch -->
    <title>Shape</title>
    <desc>Created with Sketch.</desc>
    <defs></defs>
    <g id="Page-1" stroke="none" stroke-width="1" fill="none" fill-rule="evenodd">
        <g id="LXCollection_FinalLogo.1" transform="translate(-19.000000, -345.000000)" fill-rule="nonzero" fill="#231F20">
            <path d="M219.8,523.14 C199.18,551.76 173.64,567.46 135.8,567.46 C91.48,567.46 51.17,533.61 51.17,456.98 C51.17,384.35 91.17,346.5 131.49,346.5 C167.49,346.5 192.43,360.35 206.27,376.97 C215.5,388.36 221.66,403.75 221.66,403.75 L221.66,369.57 C219.123768,370.9963 216.259726,371.737297 213.35,371.72 C202.58,371.72 200.42,365.26 182.27,356.03 C167.18,348.34 147.79,345 131.48,345 C72.7,345 19.15,379.16 19.15,456.72 C19.15,523.5 61.93,569.05 135.79,569.05 C175.18,569.05 201.65,552.43 221.65,523.19 L219.8,523.19 L219.8,523.14 Z" id="Shape"></path>
        </g>
    </g>
</svg>